<?xml version="1.0" standalone="no"?><!DOCTYPE svg PUBLIC "-//W3C//DTD SVG 1.1//EN" "http://www.w3.org/Graphics/SVG/1.1/DTD/svg11.dtd"><svg t="1539620716133" class="icon" style="" viewBox="0 0 1024 1024" version="1.1" xmlns="http://www.w3.org/2000/svg" p-id="3851" xmlns:xlink="http://www.w3.org/1999/xlink" width="80" height="80"><defs><style type="text/css"></style></defs><path d="M512 0c-282.764857 0-511.997287 229.232429-511.997287 511.997287 0 282.768927 229.231073 511.997287 511.997287 511.997287 282.770284 0 511.997287-229.228359 511.997287-511.997287C1023.997287 229.232429 794.770284 0 512 0L512 0zM512 952.138637C268.917083 952.138637 71.864076 755.080204 71.864076 511.99593c0-243.082917 197.053006-440.134567 440.134567-440.134567S952.139994 268.914369 952.139994 511.99593C952.139994 755.080204 755.082917 952.138637 512 952.138637L512 952.138637zM512 952.138637" p-id="3852" fill="#1195db"></path><path d="M517.611286 398.733696C438.012698 398.733696 373.457132 463.289262 373.457132 542.88785c0 79.598588 64.555566 144.155511 144.154154 144.155511 79.599945 0 144.152798-64.556923 144.152798-144.155511C661.762727 463.289262 597.209874 398.733696 517.611286 398.733696L517.611286 398.733696zM517.611286 635.558184c-51.102589 0-92.673047-41.570458-92.673047-92.671691S466.508697 450.218873 517.611286 450.218873c51.099876 0 92.671691 41.567745 92.671691 92.668977S568.711162 635.558184 517.611286 635.558184L517.611286 635.558184zM517.611286 635.558184" p-id="3853" fill="#1195db"></path><path d="M702.951954 398.733696c-11.384019 0-20.59597 9.210595-20.59597 20.593257 0 11.384019 9.211952 20.594614 20.59597 20.594614 11.382662 0 20.593257-9.210595 20.593257-20.594614C723.545211 407.944291 714.333259 398.733696 702.951954 398.733696L702.951954 398.733696zM702.951954 398.733696" p-id="3854" fill="#1195db"></path><path d="M764.733081 336.952569l-112.540473 0L617.118001 284.342692c-3.82045-5.730675-10.255249-9.169894-17.133687-9.169894L435.235545 275.172798c-6.875725 0-13.313237 3.439219-17.135044 9.169894l-35.073251 52.60852-112.536403 0c-22.705629 0-41.18787 18.482241-41.18787 41.18787l0 329.493466c0 22.705629 18.482241 41.186514 41.18787 41.186514l494.242233 0c22.701559 0 41.1838-18.480884 41.1838-41.186514L805.916881 378.140439C805.916881 355.43481 787.43464 336.952569 764.733081 336.952569L764.733081 336.952569zM270.490848 707.633905 270.490848 378.140439l123.559541 0c6.875725 0 13.313237-3.440576 17.135044-9.169894l35.070537-52.60852 142.707919 0L624.038496 368.970545c3.82045 5.730675 10.255249 9.169894 17.133687 9.169894l123.560898 0 0.036631 329.493466L270.490848 707.633905 270.490848 707.633905zM270.490848 707.633905" p-id="3855" fill="#1195db"></path></svg>